<svg xmlns="http://www.w3.org/2000/svg" viewBox="0 0 1505.22 864.71"><defs><style>.cls-1{fill:#fff;}.cls-2{fill:#eb2227;}</style></defs><g id="Layer_2" data-name="Layer 2"><g id="Layer_1-2" data-name="Layer 1"><path class="cls-1" d="M795.57,609.47H729.88V631h62.56q14.7,0,19.88,5t5.18,18.69v13.77q0,13.66-5.18,18.71t-19.88,5h-62q-14.72,0-19.89-5t-5.17-18.71v-2.76l20.6-4.26v11.86H796.9V650.48H734.35q-14.62,0-19.75-5t-5.12-18.7V615.64c0-9.12,1.7-15.34,5.12-18.7s10-5,19.75-5H791.3q14.13,0,19.5,4.84t5.37,17.18V616l-20.6,4.84Z"/><path class="cls-1" d="M898,609.85v82.39H874.68V609.85h-46V591.91H944.25v17.94Z"/><path class="cls-1" d="M981.6,591.91v81.44h66.54V591.91h23.26v76.6q0,13.75-5.13,18.75t-19.74,5H983.12q-14.52,0-19.7-5t-5.17-18.75v-76.6Z"/><path class="cls-1" d="M1108.17,692.24V591.91h64.55q27.62,0,42.48,12.91t14.85,36.63a54.5,54.5,0,0,1-5.79,25.31,44,44,0,0,1-16.32,17.7,47.34,47.34,0,0,1-16.29,5.93,136.81,136.81,0,0,1-24.91,1.85Zm23.35-18.89h30.18q24.12,0,34.18-7.5t10.06-24.78q0-15.37-8.36-23.29t-24.68-7.93h-41.38Z"/><path class="cls-1" d="M1258.28,692.24V591.91h23.35V692.24Z"/><path class="cls-1" d="M1316.22,615.64c0-9.12,1.71-15.34,5.13-18.7s10-5,19.74-5h73.85q14.63,0,19.75,5c3.41,3.36,5.12,9.58,5.12,18.7v52.87q0,13.75-5.12,18.75t-19.75,5h-73.85q-14.62,0-19.74-5t-5.13-18.75Zm23.35,57.71h77v-63.5h-77Z"/><path class="cls-1" d="M1333.6,560.81H697.83L290.44,134.29V560.81H0l57.39-42.38H236.24V0L730.8,513.69h15.08L259.57,9.72,377.3,61.35,814.78,513.69h14.15L404.12,71l108.25,42.14L897.83,513.69h411c193.08,0,193.08-178.85,0-178.85H888.42c-205.14,0-205.14-263.84,0-263.84h616.8l-50.08,48.75h-562c-141.6,0-141.6,166.49,0,166.49H1333.6C1562.37,286.24,1562.37,560.81,1333.6,560.81Z"/><polygon class="cls-2" points="629.49 560.81 339.16 864.71 339.16 256.92 629.49 560.81"/></g></g></svg>